# AST/ASF file generated using VICON BodyLanguage
# -----------------------------------------------
:version 1.10
:name VICON
:units
  mass 1.0
  length 0.45
  angle deg
:documentation
   .ast/.asf automatically generated from VICON data using
   VICON BodyBuilder and BodyLanguage model FoxedUp or BRILLIANT.MOD
:root
   order TX TY TZ RX RY RZ
   axis XYZ
   position 0 0 0  
   orientation 0 0 0 
:bonedata
  begin
     id 1 
     name lhipjoint
     direction 0.660183 -0.676772 0.325788 
     length 2.75133 
     axis 0 0 0  XYZ
  end
  begin
     id 2 
     name lfemur
     direction 0.34202 -0.939693 0  
     length 7.70317  
     axis 0 0 20  XYZ
    dof rx ry rz
    limits (-160.0 20.0)
           (-70.0 70.0)
           (-60.0 70.0)
  end
  begin
     id 3 
     name ltibia
     direction 0.342105 -0.939662 0   
     length 7.18701   
     axis 0 0 20   XYZ
    dof rx
    limits (-10.0 170.0)
  end
  begin
     id 4 
     name lfoot
     direction 0.14163 -0.389126 0.910232   
     length 2.41719   
     axis -90 7.62852e-016 20   XYZ
    dof rx rz
    limits (-45.0 90.0)
           (-70.0 20.0)
  end
  begin
     id 5 
     name ltoes
     direction 1.53533e-011 -4.21926e-011 1   
     length 1.18611   
     axis -90 7.62852e-016 20   XYZ
    dof rx
    limits (-90.0 20.0)
  end
  begin
     id 6 
     name rhipjoint
     direction -0.6658 -0.67229 0.323631   
     length 2.76968  
     axis 0 0 0  XYZ 
  end
  begin
     id 7 
     name rfemur
     direction -0.34202 -0.939693 0   
     length 7.92547   
     axis 0 0 -20   XYZ
    dof rx ry rz
    limits (-160.0 20.0)
           (-70.0 70.0)
           (-70.0 60.0)
  end
  begin
     id 8 
     name rtibia
     direction -0.342022 -0.939692 0   
     length 7.22641   
     axis 0 0 -20   XYZ
    dof rx
    limits (-10.0 170.0)
 end
 begin
     id 9 
     name rfoot
     direction -0.105675 -0.29034 0.951071   
     length 2.48149  
     axis -90 -7.62852e-016 -20   XYZ
    dof rx rz
    limits (-45.0 90.0)
           (-20.0 70.0)
  end
  begin
     id 10 
     name rtoes
     direction -1.5349e-011 -4.21859e-011 1   
     length 1.23343   
     axis -90 -7.62852e-016 -20   XYZ
    dof rx
    limits (-90.0 20.0)
  end
  begin
     id 11 
     name lowerback
     direction 0.0104173 0.993624 -0.112266   
     length 2.00527   
     axis 0 0 0   XYZ
    dof rx ry rz
    limits (-20.0 45.0)
           (-30.0 30.0)
           (-30.0 30.0)
  end
  begin
     id 12 
     name upperback
     direction 0.00733149 0.999856 -0.0152913   
     length 2.01385   
     axis 0 0 0   XYZ
    dof rx ry rz
    limits (-20.0 45.0)
           (-30.0 30.0)
           (-30.0 30.0)
  end
  begin
     id 13 
     name thorax
     direction 0.0026304 0.999318 0.036841   
     length 2.03734   
     axis 0 0 0   XYZ
    dof rx ry rz
    limits (-20.0 45.0)
           (-30.0 30.0)
           (-30.0 30.0)
  end
  begin
     id 14 
     name lowerneck
     direction 0.0293154 0.998757 0.0403082   
     length 1.65303   
     axis 0 0 0   XYZ
    dof rx ry rz
    limits (-20.0 45.0)
           (-30.0 30.0)
           (-30.0 30.0)
  end
  begin
     id 15 
     name upperneck
     direction -0.0376619 0.998184 -0.0470083   
     length 1.60926   
     axis 0 0 0   XYZ
    dof rx ry rz
    limits (-20.0 45.0)
           (-30.0 30.0)
           (-30.0 30.0)
  end
  begin
     id 16
     name head
     direction -0.0170133 0.999635 -0.0209778  
     length 1.73625  
     axis 0 0 0   XYZ
    dof rx ry rz
    limits (-20.0 45.0)
           (-30.0 30.0)
           (-30.0 30.0)
  end
  begin
     id 17 
     name lclavicle
     direction 0.919857 0.39181 -0.0186333  
     length 3.75313  
     axis 0 0 0   XYZ
    dof ry rz
    limits (-20.0 10.0)
           (0.0 20.0)
  end
  begin
     id 18 
     name lhumerus
     direction 1 -4.48988e-011 1.44029e-027   
     length 5.49313   
     axis 180 -30 -90   XYZ
    dof rx ry rz
    limits (-60.0 90.0)
           (-90.0 90.0)
           (-90.0 90.0)
  end
  begin
     id 19
     name lradius
     direction 1 -4.48924e-011 7.46281e-027   
     length 3.29037   
     axis 180 -30 -90   XYZ
    dof rx
    limits (-10.0 170.0)
  end
  begin
     id 20
     name lwrist
     direction 1 -4.48955e-011 2.19879e-026   
     length 1.64519   
     axis -1.34358e-014 90 90   XYZ
    dof ry
    limits (-180.0 0.0)
 end
  begin
     id 21 
     name lhand
     direction 1 -4.48978e-011 4.39747e-026   
     length 0.729656   
     axis -2.80598e-014 90 90   XYZ
    dof rx rz
    limits (-90.0 90.0)
           (-45.0 45.0)
  end
  begin
     id 22 
     name lfingers
     direction 1 -4.49071e-011 8.79411e-026   
     length 0.588268   
     axis -5.61193e-014 90 90   XYZ
    dof rx
    limits (0.0 90.0)
  end
  begin
     id 23
     name lthumb
     direction 0.707107 -6.34817e-011 0.707107   
     length 0.844638   
     axis -90 45 -9.86923e-015   XYZ
    dof rx rz
    limits (-45.0 45.0)
           (-45.0 45.0)
  end
  begin
     id 24 
     name rclavicle
     direction -0.919898 0.388279 0.0550233   
     length 3.7171  
     axis 0 0 0   XYZ 
    dof ry rz
    limits (-10.0 20.0)
           (-20.0 0.0)
  end
  begin
     id 25 
     name rhumerus
     direction -1 -4.48968e-011 9.98372e-028  
     length 5.23684   
     axis 180 30 90   XYZ
    dof rx ry rz
    limits (-90.0 60.0)
           (-90.0 90.0)
           (-90.0 90.0)
  end
  begin
     id 26 
     name rradius
     direction -1 -4.48956e-011 1.01023e-026   
     length 3.38251   
     axis 180 30 90   XYZ
    dof rx
    limits (-10.0 170.0)
  end
  begin
     id 27 
     name rwrist
     direction -1 -4.4892e-011 2.19886e-026   
     length 1.69126   
     axis -1.34358e-014 -90 -90   XYZ
    dof ry
    limits (-180.0 0.0)
  end
  begin
     id 28
     name rhand
     direction -1 -4.49024e-011 4.39727e-026   
     length 0.691454   
     axis -2.80598e-014 -90 -90   XYZ
    dof rx rz
    limits (-90.0 90.0)
           (-45.0 45.0)
  end
  begin
     id 29
     name rfingers
     direction -1 -4.49097e-011 8.79388e-026   
     length 0.557468   
     axis -5.61193e-014 -90 -90   XYZ
    dof rx
    limits (0.0 90.0)
  end
  begin
     id 30
     name rthumb
     direction -0.707107 -6.34938e-011 0.707107   
     length 0.800416   
     axis -90 -45 9.86923e-015   XYZ
    dof rx rz
    limits (-45.0 45.0)
           (-45.0 45.0)
  end
:hierarchy
  begin
    root lhipjoint rhipjoint lowerback
    lhipjoint lfemur
    lfemur ltibia
    ltibia lfoot
    lfoot ltoes
    rhipjoint rfemur
    rfemur rtibia
    rtibia rfoot
    rfoot rtoes
    lowerback upperback
    upperback thorax
    thorax lowerneck lclavicle rclavicle
    lowerneck upperneck
    upperneck head
    lclavicle lhumerus
    lhumerus lradius
    lradius lwrist
    lwrist lhand lthumb
    lhand lfingers
    rclavicle rhumerus
    rhumerus rradius
    rradius rwrist
    rwrist rhand rthumb
    rhand rfingers
  end

#!OML:ASF H:\BabyWalks\Project 1\Capture day 1\Session 1\baby.ASF
:FULLY-SPECIFIED
:DEGREES
40
root -38.2308 17.615 -2.4749 -10.8503 79.7125 -12.4444
lowerback 15.1991 -0.879931 1.25713
upperback 6.16283 -0.617781 2.08739
thorax -1.98935 -0.189733 1.57215
lowerneck -3.90554 3.24323 0.986054
upperneck -6.88705 4.24735 -4.22718
head -1.36642 2.21506 -1.48208
rclavicle -1.30204e-014 1.70955e-014
rhumerus -53.118 26.9241 -87.7535
rradius 38.2022
rwrist -4.31296
rhand 19.2033 -22.5918
rfingers 7.12502
rthumb 43.7922 -46.5517
lclavicle -1.30204e-014 1.70955e-014
lhumerus -53.7658 -4.37042 84.9601
lradius 37.591
lwrist 9.06308
lhand 28.2257 25.7647
lfingers 7.12502
lthumb 52.1049 45.8078
rfemur 0.0414997 9.85048 23.8412
rtibia 19.4933
rfoot -25.4202 1.37134
rtoes 17.4068
lfemur -17.8846 -3.36928 -11.1815
ltibia 28.9462
lfoot -16.3521 -8.57943
ltoes -1.38167
41
root -38.2166 17.6095 -2.48765 -10.4524 79.5206 -12.064
lowerback 15.2012 -0.829297 1.11265
upperback 6.18286 -0.574994 2.02522
thorax -1.96936 -0.170167 1.58144
lowerneck -3.91429 2.93481 0.793529
upperneck -7.01693 3.85244 -3.87608
head -1.42627 2.01896 -1.34175
rclavicle -9.14409e-015 -6.36111e-015
rhumerus -53.2968 26.8722 -87.7508
rradius 38.2834
rwrist -4.49047
rhand 18.7976 -22.4933
rfingers 7.12502
rthumb 43.4133 -46.5916
lclavicle -9.14409e-015 -6.36111e-015
lhumerus -54.1889 -4.16368 84.9512
lradius 37.5086
lwrist 7.64531
lhand 27.3929 25.2898
lfingers 7.12502
lthumb 51.3485 45.7746
rfemur 0.0607479 9.82777 23.7024
rtibia 19.497
rfoot -25.6361 1.84597
rtoes 16.9638
lfemur -17.8945 -3.26243 -11.2449
ltibia 29.1306
lfoot -16.5165 -8.54702
ltoes -1.27285
42
root -38.2034 17.6032 -2.50025 -10.0491 79.3371 -11.6795
lowerback 15.1429 -0.774521 0.879567
upperback 6.25885 -0.536341 2.0298
thorax -1.85664 -0.1536 1.71042
lowerneck -3.96253 2.62532 0.541403
upperneck -7.17076 3.45758 -3.56688
head -1.48513 1.82553 -1.20413
rclavicle 4.17448e-015 -1.19271e-015
rhumerus -53.3653 26.9162 -87.6349
rradius 38.3639
rwrist -4.64781
rhand 18.4355 -22.4447
rfingers 7.12502
rthumb 43.075 -46.664
lclavicle 4.17448e-015 -1.19271e-015
lhumerus -54.5046 -3.8994 85.0455
lradius 37.441
lwrist 6.08817
lhand 26.5395 24.7636
lfingers 7.12502
lthumb 50.5707 45.6814
rfemur 0.0749548 9.76311 23.5604
rtibia 19.507
rfoot -25.8331 2.28189
rtoes 16.4337
lfemur -17.9233 -3.15269 -11.3165
ltibia 29.3347
lfoot -16.6793 -8.51379
ltoes -1.17933
43
root -38.1909 17.5964 -2.51246 -9.66075 79.1564 -11.3047
lowerback 15.1233 -0.739601 0.662738
upperback 6.33053 -0.520334 2.02208
thorax -1.76885 -0.148124 1.82167
lowerneck -4.02529 2.32897 0.286825
upperneck -7.30848 3.08185 -3.24956
head -1.534 1.64129 -1.06297
rclavicle 1.03368e-014 0
rhumerus -53.4063 26.9895 -87.5432
rradius 38.4299
rwrist -4.76646
rhand 18.1056 -22.4116
rfingers 7.12502
rthumb 42.7664 -46.7395
lclavicle 1.03368e-014 0
lhumerus -54.8091 -3.63884 85.1421
lradius 37.4092
lwrist 4.47615
lhand 25.6907 24.2163
lfingers 7.12502
lthumb 49.7945 45.5463
rfemur 0.0923182 9.716 23.4313
rtibia 19.5338
rfoot -26.0462 2.60919
rtoes 15.7173
lfemur -17.9595 -3.02703 -11.393
ltibia 29.5516
lfoot -16.8423 -8.48523
ltoes -1.11657
44
root -38.179 17.5893 -2.52419 -9.30985 78.9725 -10.9583
lowerback 15.1181 -0.716746 0.431686
upperback 6.41992 -0.52004 2.02986
thorax -1.66924 -0.150701 1.95992
lowerneck -4.13363 2.04311 -0.00911975
upperneck -7.43367 2.72339 -2.92956
head -1.56932 1.46655 -0.913255
rclavicle -1.35174e-014 -1.59028e-014
rhumerus -53.3905 27.1247 -87.4336
rradius 38.4848
rwrist -4.86559
rhand 17.8053 -22.3936
rfingers 7.12502
rthumb 42.4854 -46.8189
lclavicle -1.35174e-014 -1.59028e-014
lhumerus -55.0587 -3.34565 85.2642
lradius 37.3886
lwrist 2.83562
lhand 24.8496 23.6866
lfingers 7.12502
lthumb 49.0231 45.4075
rfemur 0.10912 9.67799 23.3186
rtibia 19.5872
rfoot -26.2733 2.85864
rtoes 15.025
lfemur -17.9877 -2.87715 -11.4679
ltibia 29.7655
lfoot -17.0003 -8.46596
ltoes -1.07404
45
root -38.1681 17.5822 -2.53583 -9.00263 78.8103 -10.6577
lowerback 15.129 -0.716782 0.210831
upperback 6.51498 -0.547146 2.04123
thorax -1.57118 -0.166889 2.1008
lowerneck -4.29946 1.7664 -0.303627
upperneck -7.52698 2.37833 -2.63621
head -1.58221 1.29848 -0.771276
rclavicle -9.0447e-015 1.03368e-014
rhumerus -53.3322 27.3101 -87.3282
rradius 38.5293
rwrist -4.94425
rhand 17.5231 -22.3863
rfingers 7.12502
rthumb 42.2211 -46.9018
lclavicle -9.0447e-015 1.03368e-014
lhumerus -55.2554 -3.02363 85.3854
lradius 37.3657
lwrist 1.23003
lhand 24.02 23.1616
lfingers 7.12502
lthumb 48.2599 45.2522
rfemur 0.104921 9.63689 23.2146
rtibia 19.6631
rfoot -26.4861 3.03862
rtoes 14.3917
lfemur -18.0141 -2.75785 -11.5406
ltibia 29.9588
lfoot -17.1405 -8.42884
ltoes -1.03596
46
root -38.158 17.5764 -2.5472 -8.76353 78.6675 -10.4251
lowerback 15.1764 -0.740466 0.0262822
upperback 6.60028 -0.599883 2.04065
thorax -1.50196 -0.195222 2.21329
lowerneck -4.47145 1.50713 -0.609825
upperneck -7.60843 2.05897 -2.33021
head -1.5884 1.14335 -0.623838
rclavicle 4.28381e-014 -1.86858e-014
rhumerus -53.2567 27.5188 -87.2575
rradius 38.5613
rwrist -4.99336
rhand 17.2679 -22.4042
rfingers 7.12502
rthumb 41.982 -47.0003
lclavicle 4.28381e-014 -1.86858e-014
lhumerus -55.4196 -2.69118 85.4802
lradius 37.3286
lwrist -0.295202
lhand 23.1756 22.6473
lfingers 7.12502
lthumb 47.4811 45.0986
rfemur 0.0707721 9.58086 23.1224
rtibia 19.7637
rfoot -26.6576 3.17817
rtoes 13.8446
lfemur -18.0271 -2.66028 -11.6053
ltibia 30.1175
lfoot -17.2593 -8.37921
ltoes -1.01258
47
root -38.1484 17.5731 -2.55838 -8.59471 78.5461 -10.2613
lowerback 15.2612 -0.783794 -0.110326
upperback 6.66931 -0.67211 2.02129
thorax -1.46947 -0.232235 2.28272
lowerneck -4.63346 1.26347 -0.892633
upperneck -7.67514 1.76015 -2.03391
head -1.58948 0.997943 -0.483907
rclavicle -1.0635e-014 2.3059e-014
rhumerus -53.1861 27.7264 -87.236
rradius 38.5907
rwrist -4.99959
rhand 17.0352 -22.4693
rfingers 7.12502
rthumb 41.7637 -47.138
lclavicle -1.0635e-014 2.3059e-014
lhumerus -55.5575 -2.3632 85.5344
lradius 37.263
lwrist -1.68875
lhand 22.3228 22.1863
lfingers 7.12502
lthumb 46.6925 44.9868
rfemur 0.0157096 9.58474 23.0549
rtibia 19.889
rfoot -26.7958 3.19656
rtoes 13.4233
lfemur -18.0267 -2.59111 -11.6643
ltibia 30.234
lfoot -17.3503 -8.31121
ltoes -1.0175
48
root -38.1396 17.5723 -2.56941 -8.52044 78.4507 -10.1947
lowerback 15.375 -0.839493 -0.196838
upperback 6.71876 -0.754272 1.98715
thorax -1.47316 -0.273092 2.31056
lowerneck -4.75068 1.0331 -1.1354
upperneck -7.74502 1.47632 -1.75926
head -1.59719 0.859472 -0.35822
rclavicle -1.07344e-014 3.3197e-014
rhumerus -53.1318 27.9101 -87.2616
rradius 38.6261
rwrist -4.94938
rhand 16.8454 -22.6229
rfingers 7.12502
rthumb 41.5858 -47.3502
lclavicle -1.07344e-014 3.3197e-014
lhumerus -55.6733 -2.06008 85.553
lradius 37.1646
lwrist -2.89944
lhand 21.4659 21.7925
lfingers 7.12502
lthumb 45.8982 44.9293
rfemur -0.0597746 9.61995 23.013
rtibia 20.0209
rfoot -26.8685 3.13391
rtoes 13.2097
lfemur -18.0219 -2.55431 -11.7114
ltibia 30.3123
lfoot -17.4127 -8.22554
ltoes -1.05312
